<mxfile host="app.diagrams.net" modified="2023-06-29T22:57:58.797Z" agent="Mozilla/5.0 (Windows NT 10.0; Win64; x64) AppleWebKit/537.36 (KHTML, like Gecko) Chrome/114.0.0.0 Safari/537.36" etag="bRNfn04lqCvj26rz5z5d" version="21.5.2" type="device">
  <diagram id="C5RBs43oDa-KdzZeNtuy" name="Page-1">
    <mxGraphModel dx="2261" dy="804" grid="1" gridSize="10" guides="1" tooltips="1" connect="1" arrows="1" fold="1" page="1" pageScale="1" pageWidth="827" pageHeight="1169" math="0" shadow="0">
      <root>
        <mxCell id="WIyWlLk6GJQsqaUBKTNV-0" />
        <mxCell id="WIyWlLk6GJQsqaUBKTNV-1" parent="WIyWlLk6GJQsqaUBKTNV-0" />
        <mxCell id="ug3Ie0NRGesRpwvgRHZQ-4" value="ScriptableObject" style="html=1;whiteSpace=wrap;" vertex="1" parent="WIyWlLk6GJQsqaUBKTNV-1">
          <mxGeometry x="160" y="80" width="110" height="50" as="geometry" />
        </mxCell>
        <mxCell id="ug3Ie0NRGesRpwvgRHZQ-5" value="MonoBehaviour" style="html=1;whiteSpace=wrap;" vertex="1" parent="WIyWlLk6GJQsqaUBKTNV-1">
          <mxGeometry x="560" y="630" width="110" height="50" as="geometry" />
        </mxCell>
        <mxCell id="ug3Ie0NRGesRpwvgRHZQ-6" value="BattlerTemplate" style="html=1;whiteSpace=wrap;" vertex="1" parent="WIyWlLk6GJQsqaUBKTNV-1">
          <mxGeometry x="380" y="220" width="110" height="50" as="geometry" />
        </mxCell>
        <mxCell id="ug3Ie0NRGesRpwvgRHZQ-7" value="ProtoBattler" style="html=1;whiteSpace=wrap;" vertex="1" parent="WIyWlLk6GJQsqaUBKTNV-1">
          <mxGeometry x="380" y="430" width="110" height="50" as="geometry" />
        </mxCell>
        <mxCell id="ug3Ie0NRGesRpwvgRHZQ-8" value="Battler" style="html=1;whiteSpace=wrap;" vertex="1" parent="WIyWlLk6GJQsqaUBKTNV-1">
          <mxGeometry x="385" y="630" width="100" height="50" as="geometry" />
        </mxCell>
        <mxCell id="ug3Ie0NRGesRpwvgRHZQ-9" value="Battle" style="html=1;whiteSpace=wrap;" vertex="1" parent="WIyWlLk6GJQsqaUBKTNV-1">
          <mxGeometry x="560" y="430" width="110" height="50" as="geometry" />
        </mxCell>
        <mxCell id="ug3Ie0NRGesRpwvgRHZQ-16" value="Extends" style="endArrow=block;endSize=16;endFill=0;html=1;rounded=0;exitX=0.5;exitY=0;exitDx=0;exitDy=0;entryX=1;entryY=0.5;entryDx=0;entryDy=0;edgeStyle=orthogonalEdgeStyle;" edge="1" parent="WIyWlLk6GJQsqaUBKTNV-1" source="ug3Ie0NRGesRpwvgRHZQ-6" target="ug3Ie0NRGesRpwvgRHZQ-4">
          <mxGeometry width="160" relative="1" as="geometry">
            <mxPoint x="616" y="470" as="sourcePoint" />
            <mxPoint x="776" y="470" as="targetPoint" />
          </mxGeometry>
        </mxCell>
        <mxCell id="ug3Ie0NRGesRpwvgRHZQ-18" value="Extends" style="endArrow=block;endSize=16;endFill=0;html=1;rounded=0;exitX=1;exitY=0.5;exitDx=0;exitDy=0;entryX=0;entryY=0.5;entryDx=0;entryDy=0;" edge="1" parent="WIyWlLk6GJQsqaUBKTNV-1" source="ug3Ie0NRGesRpwvgRHZQ-8" target="ug3Ie0NRGesRpwvgRHZQ-5">
          <mxGeometry width="160" relative="1" as="geometry">
            <mxPoint x="616" y="470" as="sourcePoint" />
            <mxPoint x="776" y="470" as="targetPoint" />
          </mxGeometry>
        </mxCell>
        <mxCell id="ug3Ie0NRGesRpwvgRHZQ-20" value="«interface»&lt;br&gt;&lt;b&gt;IInteractable&lt;/b&gt;" style="html=1;whiteSpace=wrap;" vertex="1" parent="WIyWlLk6GJQsqaUBKTNV-1">
          <mxGeometry x="560" y="340" width="110" height="50" as="geometry" />
        </mxCell>
        <mxCell id="ug3Ie0NRGesRpwvgRHZQ-21" value="" style="endArrow=block;dashed=1;endFill=0;endSize=12;html=1;rounded=0;entryX=0.5;entryY=1;entryDx=0;entryDy=0;" edge="1" parent="WIyWlLk6GJQsqaUBKTNV-1" source="ug3Ie0NRGesRpwvgRHZQ-9" target="ug3Ie0NRGesRpwvgRHZQ-20">
          <mxGeometry width="160" relative="1" as="geometry">
            <mxPoint x="616" y="530" as="sourcePoint" />
            <mxPoint x="776" y="530" as="targetPoint" />
          </mxGeometry>
        </mxCell>
        <mxCell id="ug3Ie0NRGesRpwvgRHZQ-22" value="LearnableMove" style="html=1;whiteSpace=wrap;" vertex="1" parent="WIyWlLk6GJQsqaUBKTNV-1">
          <mxGeometry x="160" y="220" width="110" height="50" as="geometry" />
        </mxCell>
        <mxCell id="ug3Ie0NRGesRpwvgRHZQ-23" value="" style="endArrow=diamondThin;endFill=0;endSize=24;html=1;rounded=0;entryX=0;entryY=0.5;entryDx=0;entryDy=0;exitX=1;exitY=0.5;exitDx=0;exitDy=0;" edge="1" parent="WIyWlLk6GJQsqaUBKTNV-1" source="ug3Ie0NRGesRpwvgRHZQ-22" target="ug3Ie0NRGesRpwvgRHZQ-6">
          <mxGeometry width="160" relative="1" as="geometry">
            <mxPoint x="570" y="560" as="sourcePoint" />
            <mxPoint x="730" y="560" as="targetPoint" />
          </mxGeometry>
        </mxCell>
        <mxCell id="ug3Ie0NRGesRpwvgRHZQ-24" value="" style="endArrow=diamondThin;endFill=0;endSize=24;html=1;rounded=0;entryX=0.5;entryY=0;entryDx=0;entryDy=0;exitX=0.5;exitY=1;exitDx=0;exitDy=0;" edge="1" parent="WIyWlLk6GJQsqaUBKTNV-1" source="ug3Ie0NRGesRpwvgRHZQ-7" target="ug3Ie0NRGesRpwvgRHZQ-8">
          <mxGeometry width="160" relative="1" as="geometry">
            <mxPoint x="570" y="560" as="sourcePoint" />
            <mxPoint x="730" y="560" as="targetPoint" />
          </mxGeometry>
        </mxCell>
        <mxCell id="ug3Ie0NRGesRpwvgRHZQ-25" value="" style="endArrow=diamondThin;endFill=0;endSize=24;html=1;rounded=0;entryX=0;entryY=0.5;entryDx=0;entryDy=0;exitX=1;exitY=0.5;exitDx=0;exitDy=0;" edge="1" parent="WIyWlLk6GJQsqaUBKTNV-1" source="ug3Ie0NRGesRpwvgRHZQ-7" target="ug3Ie0NRGesRpwvgRHZQ-9">
          <mxGeometry width="160" relative="1" as="geometry">
            <mxPoint x="570" y="560" as="sourcePoint" />
            <mxPoint x="730" y="560" as="targetPoint" />
          </mxGeometry>
        </mxCell>
        <mxCell id="ug3Ie0NRGesRpwvgRHZQ-26" value="" style="endArrow=diamondThin;endFill=0;endSize=24;html=1;rounded=0;entryX=0.5;entryY=0;entryDx=0;entryDy=0;exitX=0.5;exitY=1;exitDx=0;exitDy=0;" edge="1" parent="WIyWlLk6GJQsqaUBKTNV-1" source="ug3Ie0NRGesRpwvgRHZQ-6" target="ug3Ie0NRGesRpwvgRHZQ-7">
          <mxGeometry width="160" relative="1" as="geometry">
            <mxPoint x="570" y="560" as="sourcePoint" />
            <mxPoint x="730" y="560" as="targetPoint" />
          </mxGeometry>
        </mxCell>
        <mxCell id="ug3Ie0NRGesRpwvgRHZQ-27" value="Move" style="html=1;whiteSpace=wrap;" vertex="1" parent="WIyWlLk6GJQsqaUBKTNV-1">
          <mxGeometry x="90" y="350" width="110" height="50" as="geometry" />
        </mxCell>
        <mxCell id="ug3Ie0NRGesRpwvgRHZQ-28" value="" style="endArrow=diamondThin;endFill=0;endSize=24;html=1;rounded=0;entryX=0.5;entryY=1;entryDx=0;entryDy=0;exitX=0.75;exitY=0;exitDx=0;exitDy=0;" edge="1" parent="WIyWlLk6GJQsqaUBKTNV-1" source="ug3Ie0NRGesRpwvgRHZQ-27" target="ug3Ie0NRGesRpwvgRHZQ-22">
          <mxGeometry width="160" relative="1" as="geometry">
            <mxPoint x="570" y="560" as="sourcePoint" />
            <mxPoint x="730" y="560" as="targetPoint" />
          </mxGeometry>
        </mxCell>
        <mxCell id="ug3Ie0NRGesRpwvgRHZQ-29" value="Extends" style="endArrow=block;endSize=16;endFill=0;html=1;rounded=0;entryX=0;entryY=0.5;entryDx=0;entryDy=0;edgeStyle=orthogonalEdgeStyle;exitX=0.25;exitY=0;exitDx=0;exitDy=0;" edge="1" parent="WIyWlLk6GJQsqaUBKTNV-1" source="ug3Ie0NRGesRpwvgRHZQ-27" target="ug3Ie0NRGesRpwvgRHZQ-4">
          <mxGeometry width="160" relative="1" as="geometry">
            <mxPoint x="140" y="310" as="sourcePoint" />
            <mxPoint x="110" y="105" as="targetPoint" />
            <Array as="points">
              <mxPoint x="118" y="105" />
            </Array>
          </mxGeometry>
        </mxCell>
        <mxCell id="ug3Ie0NRGesRpwvgRHZQ-31" value="DamageBolt" style="html=1;whiteSpace=wrap;" vertex="1" parent="WIyWlLk6GJQsqaUBKTNV-1">
          <mxGeometry x="-100" y="230" width="110" height="50" as="geometry" />
        </mxCell>
        <mxCell id="ug3Ie0NRGesRpwvgRHZQ-32" value="Extends" style="endArrow=block;endSize=16;endFill=0;html=1;rounded=0;exitX=1;exitY=0.5;exitDx=0;exitDy=0;entryX=0;entryY=0.25;entryDx=0;entryDy=0;" edge="1" parent="WIyWlLk6GJQsqaUBKTNV-1" source="ug3Ie0NRGesRpwvgRHZQ-31" target="ug3Ie0NRGesRpwvgRHZQ-27">
          <mxGeometry width="160" relative="1" as="geometry">
            <mxPoint x="540" y="410" as="sourcePoint" />
            <mxPoint x="700" y="410" as="targetPoint" />
          </mxGeometry>
        </mxCell>
        <mxCell id="ug3Ie0NRGesRpwvgRHZQ-33" value="" style="endArrow=block;dashed=1;endFill=0;endSize=12;html=1;rounded=0;entryX=0.5;entryY=0;entryDx=0;entryDy=0;exitX=0.5;exitY=1;exitDx=0;exitDy=0;" edge="1" parent="WIyWlLk6GJQsqaUBKTNV-1" source="ug3Ie0NRGesRpwvgRHZQ-27" target="ug3Ie0NRGesRpwvgRHZQ-36">
          <mxGeometry width="160" relative="1" as="geometry">
            <mxPoint x="410" y="420" as="sourcePoint" />
            <mxPoint x="570" y="420" as="targetPoint" />
          </mxGeometry>
        </mxCell>
        <mxCell id="ug3Ie0NRGesRpwvgRHZQ-34" value="" style="endArrow=block;dashed=1;endFill=0;endSize=12;html=1;rounded=0;entryX=0.5;entryY=1;entryDx=0;entryDy=0;exitX=1;exitY=0.5;exitDx=0;exitDy=0;" edge="1" parent="WIyWlLk6GJQsqaUBKTNV-1" source="ug3Ie0NRGesRpwvgRHZQ-27" target="ug3Ie0NRGesRpwvgRHZQ-37">
          <mxGeometry width="160" relative="1" as="geometry">
            <mxPoint x="110" y="380" as="sourcePoint" />
            <mxPoint x="570" y="420" as="targetPoint" />
          </mxGeometry>
        </mxCell>
        <mxCell id="ug3Ie0NRGesRpwvgRHZQ-36" value="«interface»&lt;br&gt;&lt;b&gt;ISelectable&lt;/b&gt;" style="html=1;whiteSpace=wrap;" vertex="1" parent="WIyWlLk6GJQsqaUBKTNV-1">
          <mxGeometry x="140" y="450" width="110" height="50" as="geometry" />
        </mxCell>
        <mxCell id="ug3Ie0NRGesRpwvgRHZQ-37" value="«interface»&lt;br&gt;&lt;b&gt;IInvocable&lt;/b&gt;" style="html=1;whiteSpace=wrap;" vertex="1" parent="WIyWlLk6GJQsqaUBKTNV-1">
          <mxGeometry x="230" y="300" width="110" height="50" as="geometry" />
        </mxCell>
        <mxCell id="ug3Ie0NRGesRpwvgRHZQ-38" value="" style="endArrow=block;dashed=1;endFill=0;endSize=12;html=1;rounded=0;entryX=1;entryY=0.5;entryDx=0;entryDy=0;exitX=0;exitY=0.5;exitDx=0;exitDy=0;edgeStyle=orthogonalEdgeStyle;" edge="1" parent="WIyWlLk6GJQsqaUBKTNV-1" source="ug3Ie0NRGesRpwvgRHZQ-8" target="ug3Ie0NRGesRpwvgRHZQ-36">
          <mxGeometry width="160" relative="1" as="geometry">
            <mxPoint x="490" y="690" as="sourcePoint" />
            <mxPoint x="327.5" y="535" as="targetPoint" />
          </mxGeometry>
        </mxCell>
        <mxCell id="ug3Ie0NRGesRpwvgRHZQ-39" value="Item" style="html=1;whiteSpace=wrap;" vertex="1" parent="WIyWlLk6GJQsqaUBKTNV-1">
          <mxGeometry x="-40" y="520" width="110" height="50" as="geometry" />
        </mxCell>
        <mxCell id="ug3Ie0NRGesRpwvgRHZQ-40" value="Equipment" style="html=1;whiteSpace=wrap;" vertex="1" parent="WIyWlLk6GJQsqaUBKTNV-1">
          <mxGeometry x="-40" y="630" width="110" height="50" as="geometry" />
        </mxCell>
        <mxCell id="ug3Ie0NRGesRpwvgRHZQ-41" value="Armament" style="html=1;whiteSpace=wrap;" vertex="1" parent="WIyWlLk6GJQsqaUBKTNV-1">
          <mxGeometry x="-90" y="800" width="110" height="50" as="geometry" />
        </mxCell>
        <mxCell id="ug3Ie0NRGesRpwvgRHZQ-42" value="BodyArmor" style="html=1;whiteSpace=wrap;" vertex="1" parent="WIyWlLk6GJQsqaUBKTNV-1">
          <mxGeometry x="30" y="800" width="110" height="50" as="geometry" />
        </mxCell>
        <mxCell id="ug3Ie0NRGesRpwvgRHZQ-43" value="Accessory" style="html=1;whiteSpace=wrap;" vertex="1" parent="WIyWlLk6GJQsqaUBKTNV-1">
          <mxGeometry x="150" y="800" width="110" height="50" as="geometry" />
        </mxCell>
        <mxCell id="ug3Ie0NRGesRpwvgRHZQ-44" value="GearSet" style="html=1;whiteSpace=wrap;" vertex="1" parent="WIyWlLk6GJQsqaUBKTNV-1">
          <mxGeometry x="140" y="600" width="110" height="50" as="geometry" />
        </mxCell>
        <mxCell id="ug3Ie0NRGesRpwvgRHZQ-45" value="" style="endArrow=diamondThin;endFill=0;endSize=24;html=1;rounded=0;entryX=0.182;entryY=1.04;entryDx=0;entryDy=0;entryPerimeter=0;exitX=1;exitY=0.25;exitDx=0;exitDy=0;" edge="1" parent="WIyWlLk6GJQsqaUBKTNV-1" source="ug3Ie0NRGesRpwvgRHZQ-44" target="ug3Ie0NRGesRpwvgRHZQ-6">
          <mxGeometry width="160" relative="1" as="geometry">
            <mxPoint y="490" as="sourcePoint" />
            <mxPoint x="160" y="490" as="targetPoint" />
          </mxGeometry>
        </mxCell>
        <mxCell id="ug3Ie0NRGesRpwvgRHZQ-46" value="" style="endArrow=diamondThin;endFill=0;endSize=24;html=1;rounded=0;entryX=0;entryY=0.5;entryDx=0;entryDy=0;exitX=1;exitY=0.75;exitDx=0;exitDy=0;" edge="1" parent="WIyWlLk6GJQsqaUBKTNV-1" source="ug3Ie0NRGesRpwvgRHZQ-44" target="ug3Ie0NRGesRpwvgRHZQ-7">
          <mxGeometry width="160" relative="1" as="geometry">
            <mxPoint y="490" as="sourcePoint" />
            <mxPoint x="160" y="490" as="targetPoint" />
          </mxGeometry>
        </mxCell>
        <mxCell id="ug3Ie0NRGesRpwvgRHZQ-48" value="" style="endArrow=block;dashed=1;endFill=0;endSize=12;html=1;rounded=0;entryX=0;entryY=0.5;entryDx=0;entryDy=0;exitX=0.5;exitY=0;exitDx=0;exitDy=0;" edge="1" parent="WIyWlLk6GJQsqaUBKTNV-1" source="ug3Ie0NRGesRpwvgRHZQ-39" target="ug3Ie0NRGesRpwvgRHZQ-36">
          <mxGeometry width="160" relative="1" as="geometry">
            <mxPoint y="490" as="sourcePoint" />
            <mxPoint x="160" y="490" as="targetPoint" />
          </mxGeometry>
        </mxCell>
        <mxCell id="ug3Ie0NRGesRpwvgRHZQ-49" value="Extends" style="endArrow=block;endSize=16;endFill=0;html=1;rounded=0;entryX=0.5;entryY=1;entryDx=0;entryDy=0;exitX=0.5;exitY=0;exitDx=0;exitDy=0;" edge="1" parent="WIyWlLk6GJQsqaUBKTNV-1" source="ug3Ie0NRGesRpwvgRHZQ-40" target="ug3Ie0NRGesRpwvgRHZQ-39">
          <mxGeometry x="-0.1111" width="160" relative="1" as="geometry">
            <mxPoint y="490" as="sourcePoint" />
            <mxPoint x="160" y="490" as="targetPoint" />
            <mxPoint as="offset" />
          </mxGeometry>
        </mxCell>
        <mxCell id="ug3Ie0NRGesRpwvgRHZQ-50" value="Extends" style="endArrow=block;endSize=16;endFill=0;html=1;rounded=0;entryX=0.75;entryY=1;entryDx=0;entryDy=0;exitX=0.5;exitY=0;exitDx=0;exitDy=0;" edge="1" parent="WIyWlLk6GJQsqaUBKTNV-1" source="ug3Ie0NRGesRpwvgRHZQ-43" target="ug3Ie0NRGesRpwvgRHZQ-40">
          <mxGeometry width="160" relative="1" as="geometry">
            <mxPoint y="490" as="sourcePoint" />
            <mxPoint x="160" y="490" as="targetPoint" />
          </mxGeometry>
        </mxCell>
        <mxCell id="ug3Ie0NRGesRpwvgRHZQ-51" value="Extends" style="endArrow=block;endSize=16;endFill=0;html=1;rounded=0;entryX=0.5;entryY=1;entryDx=0;entryDy=0;exitX=0.5;exitY=0;exitDx=0;exitDy=0;" edge="1" parent="WIyWlLk6GJQsqaUBKTNV-1" source="ug3Ie0NRGesRpwvgRHZQ-42" target="ug3Ie0NRGesRpwvgRHZQ-40">
          <mxGeometry width="160" relative="1" as="geometry">
            <mxPoint y="490" as="sourcePoint" />
            <mxPoint x="160" y="490" as="targetPoint" />
          </mxGeometry>
        </mxCell>
        <mxCell id="ug3Ie0NRGesRpwvgRHZQ-52" value="Extends" style="endArrow=block;endSize=16;endFill=0;html=1;rounded=0;entryX=0.25;entryY=1;entryDx=0;entryDy=0;exitX=0.5;exitY=0;exitDx=0;exitDy=0;" edge="1" parent="WIyWlLk6GJQsqaUBKTNV-1" source="ug3Ie0NRGesRpwvgRHZQ-41" target="ug3Ie0NRGesRpwvgRHZQ-40">
          <mxGeometry width="160" relative="1" as="geometry">
            <mxPoint y="490" as="sourcePoint" />
            <mxPoint x="160" y="490" as="targetPoint" />
          </mxGeometry>
        </mxCell>
        <mxCell id="ug3Ie0NRGesRpwvgRHZQ-53" value="" style="endArrow=diamondThin;endFill=0;endSize=24;html=1;rounded=0;entryX=0.25;entryY=1;entryDx=0;entryDy=0;exitX=0.75;exitY=0;exitDx=0;exitDy=0;" edge="1" parent="WIyWlLk6GJQsqaUBKTNV-1" source="ug3Ie0NRGesRpwvgRHZQ-41" target="ug3Ie0NRGesRpwvgRHZQ-44">
          <mxGeometry width="160" relative="1" as="geometry">
            <mxPoint x="40" y="680" as="sourcePoint" />
            <mxPoint x="160" y="490" as="targetPoint" />
          </mxGeometry>
        </mxCell>
        <mxCell id="ug3Ie0NRGesRpwvgRHZQ-54" value="" style="endArrow=diamondThin;endFill=0;endSize=24;html=1;rounded=0;entryX=0.5;entryY=1;entryDx=0;entryDy=0;exitX=0.75;exitY=0;exitDx=0;exitDy=0;" edge="1" parent="WIyWlLk6GJQsqaUBKTNV-1" source="ug3Ie0NRGesRpwvgRHZQ-42" target="ug3Ie0NRGesRpwvgRHZQ-44">
          <mxGeometry width="160" relative="1" as="geometry">
            <mxPoint x="120" y="690" as="sourcePoint" />
            <mxPoint x="160" y="490" as="targetPoint" />
          </mxGeometry>
        </mxCell>
        <mxCell id="ug3Ie0NRGesRpwvgRHZQ-55" value="" style="endArrow=diamondThin;endFill=0;endSize=24;html=1;rounded=0;entryX=0.75;entryY=1;entryDx=0;entryDy=0;exitX=0.75;exitY=0;exitDx=0;exitDy=0;" edge="1" parent="WIyWlLk6GJQsqaUBKTNV-1" source="ug3Ie0NRGesRpwvgRHZQ-43" target="ug3Ie0NRGesRpwvgRHZQ-44">
          <mxGeometry width="160" relative="1" as="geometry">
            <mxPoint y="490" as="sourcePoint" />
            <mxPoint x="160" y="490" as="targetPoint" />
          </mxGeometry>
        </mxCell>
      </root>
    </mxGraphModel>
  </diagram>
</mxfile>
